<svg width="27" height="18" viewBox="0 0 27 18" fill="none" xmlns="http://www.w3.org/2000/svg">
<path fill-rule="evenodd" clip-rule="evenodd" d="M17.6387 3.43523H24.2913V1.53015H17.6387V3.43523ZM20.918 7.26134C19.434 7.26134 18.3069 8.18073 18.1984 9.87955H23.5225C23.1616 7.86338 22.266 7.26134 20.918 7.26134ZM21.1259 15.1409C22.4961 15.1409 23.5016 14.2753 23.7069 13.5461H26.5886C25.7649 16.1834 24.0638 17.6646 21.0095 17.6646C17.1118 17.6646 14.9244 14.8924 14.9244 11.2139C14.9244 2.551 27.4241 2.24042 26.7965 12.0228H18.1984C18.282 14.0092 19.1018 15.1409 21.1259 15.1409ZM8.15802 14.7597C9.73095 14.7597 10.8319 14.1547 10.8319 12.522C10.8319 10.8286 9.85909 10.0941 8.22602 10.0941H4.28519V14.7597H8.15802ZM7.95013 7.54736C9.25894 7.54736 10.1624 6.93813 10.1624 5.52289C10.1624 4.03205 9.1112 3.57185 7.67425 3.57185H4.28519V7.54736H7.95013ZM8.41168 0.666992C11.5118 0.666992 13.6665 1.69168 13.6665 4.88C13.6665 6.45863 13.0324 7.63507 11.4307 8.42775C13.4809 9.03679 14.451 10.6359 14.451 12.7372C14.451 16.0727 11.806 17.6646 8.6418 17.6646H0.666016V0.666992H8.41168Z" fill="#4C4C4C"/>
</svg>
