<svg width="18" height="18" viewBox="0 0 18 18" fill="none" xmlns="http://www.w3.org/2000/svg">
<path d="M17.4797 14.0968C16.5199 13.2617 15.4587 12.5512 14.3211 11.982C13.3746 11.5273 13.0294 11.5367 12.3577 12.0196C11.8 12.4226 11.4395 12.7974 10.7972 12.6576C9.60009 12.1142 8.53158 11.3234 7.66199 10.3371C6.67474 9.4684 5.88411 8.39892 5.34289 7.2001C5.20667 6.55273 5.57773 6.19673 5.98049 5.63865C6.4631 4.96777 6.47719 4.62118 6.01807 3.6742C5.45202 2.5343 4.74164 1.47206 3.90445 0.513695C3.21635 -0.170102 3.06488 -0.0197142 2.68208 0.1154C2.29133 0.279424 1.91637 0.478811 1.56186 0.711079C0.98339 1.04192 0.515612 1.53654 0.217371 2.13272C-0.0491796 2.7096 -0.359176 3.77759 1.21547 6.5868C2.37719 8.73336 3.84864 10.697 5.58243 12.4143C7.29975 14.1481 9.26205 15.6202 11.4066 16.7838C14.2083 18.3594 15.2816 18.0492 15.8581 17.7825C16.4581 17.491 16.9565 17.0255 17.2883 16.4466C17.5205 16.0919 17.7197 15.7167 17.8837 15.3258C18.0187 14.9463 18.1737 14.7912 17.4797 14.0968Z" fill="white"/>
</svg>
