<svg width="24" height="24" viewBox="0 0 24 24" fill="none" xmlns="http://www.w3.org/2000/svg">
<path fill-rule="evenodd" clip-rule="evenodd" d="M15.6406 13.083C16.434 15.3815 16.9707 17.743 17.2507 20.1662C19.6902 18.5934 21.3457 16.0071 21.6607 13.083C19.2958 12.9211 17.708 12.935 15.6406 13.083ZM14.264 9.56476C14.4973 10.0622 14.7621 10.6913 15.0573 11.452C17.1818 11.2517 19.5525 11.2538 21.684 11.3586C21.5592 9.24652 20.7973 7.36679 19.3973 5.72068C18.3858 7.227 16.6755 8.50812 14.264 9.56476ZM9.62066 2.62172C10.9892 4.03483 12.2573 5.79835 13.424 7.91046C15.5392 7.02507 17.134 5.89889 18.2073 4.53237C15.6045 2.38181 12.3973 1.86098 9.62066 2.62172ZM6.05064 19.6768C8.85065 21.8542 12.3227 22.2654 15.4307 21.0748C15.1192 18.4186 14.5125 15.8476 13.6107 13.3627C10.5773 14.0209 7.37481 17.0626 6.05064 19.6768ZM2.57398 9.61147C3.93898 9.73496 7.66998 9.75344 11.4873 8.60943C10.3055 6.51247 9.00582 4.76538 7.59065 3.36741C5.08582 4.63374 3.27865 6.98095 2.57398 9.61147ZM4.72065 18.4184C6.18132 15.5619 9.81315 12.4634 13.004 11.7551C12.7707 11.2111 12.5455 10.7216 12.3273 10.2871C9.09332 11.3204 5.40665 11.7086 2.29398 11.5455C2.29398 14.0315 2.70115 16.1327 4.72065 18.4184ZM0.333984 12.0115C0.333984 7.63929 2.67665 3.9405 6.14398 1.92275C13.8708 -2.5729 23.6673 2.99335 23.6673 12.0115C23.6673 16.3836 21.3247 20.0824 17.8573 22.1002C14.2733 24.1855 9.73848 24.1913 6.14398 22.1002C2.67315 20.0812 0.333984 16.3801 0.333984 12.0115Z" fill="#4C4C4C"/>
</svg>
