<svg width="24" height="24" viewBox="0 0 24 24" fill="none" xmlns="http://www.w3.org/2000/svg">
<path fill-rule="evenodd" clip-rule="evenodd" d="M7.17994 0.47668C5.28075 0.562371 3.63463 1.0267 2.30543 2.35029C0.97159 3.68083 0.513029 5.33347 0.427124 7.2129C0.373724 8.38596 0.0614657 17.2481 0.966948 19.5722C1.57757 21.1402 2.7802 22.3457 4.36247 22.9583C5.10079 23.2455 5.94361 23.4399 7.17994 23.4966C17.5175 23.9644 21.3496 23.7098 22.9655 19.5722C23.2522 18.8357 23.4496 17.9937 23.5041 16.7604C23.9766 6.3963 23.4275 4.14982 21.6259 2.35029C20.1968 0.924791 18.5159 -0.0455768 7.17994 0.47668ZM7.27511 21.4122C6.14326 21.3613 5.52916 21.1727 5.11937 21.014C4.08852 20.6134 3.31422 19.8423 2.91604 18.8174C2.22648 17.0515 2.45518 8.66407 2.51671 7.3069C2.57707 5.97751 2.84639 4.76254 3.78438 3.82457C4.94525 2.66656 6.44508 2.09903 16.6573 2.55992C17.99 2.62014 19.2078 2.88891 20.1481 3.82457C21.3089 4.98256 21.8847 6.49394 21.4157 16.667C21.3647 17.796 21.1754 18.4087 21.0164 18.8174C19.9658 21.5098 17.5488 21.8835 7.27511 21.4122ZM16.7699 5.8047C16.7699 6.57131 17.3933 7.19467 18.163 7.19467C18.9326 7.19467 19.5572 6.57131 19.5572 5.8047C19.5572 5.03811 18.9326 4.41531 18.163 4.41531C17.3933 4.41531 16.7699 5.03811 16.7699 5.8047ZM6.00512 11.9861C6.00512 15.2702 8.67398 17.9328 11.9662 17.9328C15.2585 17.9328 17.9273 15.2702 17.9273 11.9861C17.9273 8.70199 15.2585 6.04111 11.9662 6.04111C8.67398 6.04111 6.00512 8.70199 6.00512 11.9861ZM8.09702 11.9861C8.09702 9.85537 9.82905 8.12664 11.9662 8.12664C14.1034 8.12664 15.8354 9.85537 15.8354 11.9861C15.8354 14.118 14.1034 15.8472 11.9662 15.8472C9.82905 15.8472 8.09702 14.118 8.09702 11.9861Z" fill="#4C4C4C"/>
</svg>