<svg width="22" height="21" viewBox="0 0 22 21" fill="none" xmlns="http://www.w3.org/2000/svg">
<path d="M21.8346 12.7719V20.8333H17.1898V13.3121C17.1898 11.4237 16.5191 10.134 14.8373 10.134C13.5539 10.134 12.7915 11.0022 12.4548 11.843C12.3325 12.1434 12.301 12.5607 12.301 12.9821V20.833H7.65576C7.65576 20.833 7.71812 8.09457 7.65576 6.77598H12.3013V8.76799C12.292 8.78367 12.2788 8.79901 12.2705 8.814H12.3013V8.76799C12.9186 7.81224 14.0195 6.44589 16.4876 6.44589C19.5435 6.44589 21.8346 8.45498 21.8346 12.7719ZM2.79646 0C1.20752 0 0.167969 1.04951 0.167969 2.42841C0.167969 3.77802 1.17738 4.85786 2.73549 4.85786H2.76563C4.38574 4.85786 5.39308 3.77802 5.39308 2.42841C5.36225 1.04951 4.38574 0 2.79646 0ZM0.44405 20.8333H5.08755V6.77598H0.44405V20.8333Z" fill="#4C4C4C"/>
</svg>
