<svg width="16" height="21" viewBox="0 0 16 21" fill="none" xmlns="http://www.w3.org/2000/svg">
<path d="M1.27167 12.1447L1.31167 12.2038C1.36167 12.2759 1.41167 12.3448 1.46167 12.417L7.25167 20.6185C7.33486 20.7362 7.44576 20.8324 7.5749 20.8989C7.70405 20.9653 7.84761 21 7.99333 21C8.13906 21 8.28262 20.9653 8.41176 20.8989C8.54091 20.8324 8.65181 20.7362 8.735 20.6185L14.5183 12.4301C14.5717 12.3547 14.6283 12.2792 14.6817 12.2005L14.7183 12.148C15.4993 10.9591 15.9401 9.58504 15.9943 8.17038C16.0486 6.75572 15.7143 5.35284 15.0266 4.10943C14.3389 2.86601 13.3234 1.82807 12.0868 1.10488C10.8502 0.381688 9.43842 0 8 0C6.56158 0 5.14977 0.381688 3.9132 1.10488C2.67663 1.82807 1.66106 2.86601 0.973403 4.10943C0.285745 5.35284 -0.0485568 6.75572 0.00569278 8.17038C0.0599424 9.58504 0.500737 10.9591 1.28167 12.148L1.27167 12.1447ZM7.995 4.59934C8.65427 4.59934 9.29874 4.79174 9.8469 5.15222C10.3951 5.51269 10.8223 6.02505 11.0746 6.6245C11.3269 7.22395 11.3929 7.88357 11.2643 8.51995C11.1357 9.15632 10.8182 9.74087 10.352 10.1997C9.88585 10.6585 9.29191 10.9709 8.6453 11.0975C7.9987 11.2241 7.32848 11.1591 6.71939 10.9108C6.1103 10.6625 5.58971 10.242 5.22343 9.70254C4.85716 9.16304 4.66167 8.52877 4.66167 7.87993C4.66167 7.00987 5.01286 6.17543 5.63798 5.5602C6.2631 4.94497 7.11095 4.59934 7.995 4.59934Z" fill="white"/>
</svg>
