<svg width="895" height="198" viewBox="0 0 895 198" fill="none" xmlns="http://www.w3.org/2000/svg">
<path d="M313.234 96.5762L325.388 90.8193H326.027V106.171C326.027 109.113 328.607 111.608 333.767 113.655C337.349 115.062 341.272 115.766 345.537 115.766C349.801 115.766 353.724 115.062 357.306 113.655C362.466 111.608 365.046 109.113 365.046 106.171V87.5571C365.046 84.5721 362.466 82.0775 357.306 80.0732C353.724 78.666 349.801 77.9624 345.537 77.9624C340.121 77.9624 335.26 77.1309 330.953 75.4678C322.978 72.3122 318.991 67.9199 318.991 62.291V43.8052C318.991 38.091 322.978 33.6987 330.953 30.6284C335.26 28.9653 340.121 28.1338 345.537 28.1338C350.952 28.1338 355.814 28.9653 360.121 30.6284C368.095 33.784 372.082 38.1763 372.082 43.8052V51.9927L359.929 57.7495H359.289V46.0439C359.289 43.9118 357.946 42.3127 355.259 41.2466C352.615 40.1805 349.375 39.6475 345.537 39.6475C341.699 39.6475 338.437 40.1805 335.75 41.2466C333.106 42.3127 331.784 43.9118 331.784 46.0439V60.0522C331.784 62.1844 333.106 63.7835 335.75 64.8496C338.437 65.9157 341.699 66.4487 345.537 66.4487C351.976 66.4487 357.903 67.5788 363.319 69.8389C372.999 73.8473 377.839 79.7534 377.839 87.5571V106.171C377.839 113.932 372.999 119.838 363.319 123.889C357.903 126.149 351.976 127.279 345.537 127.279C339.097 127.279 333.17 126.149 327.754 123.889C318.074 119.881 313.234 113.975 313.234 106.171V96.5762ZM418.899 106.171C418.899 109.071 421.479 111.565 426.639 113.655C430.221 115.062 434.144 115.766 438.408 115.766C442.673 115.766 446.596 115.062 450.178 113.655C455.338 111.608 457.918 109.113 457.918 106.171V49.2422C457.918 46.3424 455.338 43.8478 450.178 41.7583C446.596 40.3511 442.673 39.6475 438.408 39.6475C434.144 39.6475 430.221 40.3511 426.639 41.7583C421.479 43.8052 418.899 46.2998 418.899 49.2422V106.171ZM406.106 106.171C406.106 106.171 406.106 87.1947 406.106 49.2422C406.106 41.4385 410.946 35.5324 420.626 31.5239C426.042 29.2638 431.969 28.1338 438.408 28.1338C444.848 28.1338 450.775 29.2638 456.191 31.5239C465.871 35.5324 470.711 41.4385 470.711 49.2422V106.171C470.711 113.975 465.871 119.881 456.191 123.889C450.775 126.149 444.848 127.279 438.408 127.279C431.969 127.279 426.042 126.149 420.626 123.889C410.946 119.881 406.106 113.975 406.106 106.171ZM514.33 66.7686H532.56C536.184 66.7686 539.148 66.0649 541.451 64.6577C544.692 62.6108 546.312 60.1162 546.312 57.1738V50.5215C546.312 46.9395 544.606 44.4448 541.195 43.0376C537.783 41.6304 534.905 40.9268 532.56 40.9268H514.33V66.7686ZM514.33 114.486H532.56C536.824 114.486 540.747 113.783 544.329 112.375C549.489 110.371 552.069 107.877 552.069 104.892V87.877C552.069 84.9346 549.489 82.4399 544.329 80.3931C540.747 78.9858 536.824 78.2822 532.56 78.2822H514.33V114.486ZM501.537 126V32.6113L508.317 29.4131H532.56C537.975 29.4131 542.943 30.5431 547.463 32.8032C555.224 36.769 559.105 42.6751 559.105 50.5215V57.1738C559.105 62.0352 556.482 66.8112 551.237 71.502C560.32 75.4678 564.862 80.9261 564.862 87.877V104.892C564.862 112.653 560.022 118.559 550.342 122.61C544.926 124.87 538.999 126 532.56 126H501.537ZM607.201 106.171C607.201 109.071 609.781 111.565 614.941 113.655C618.523 115.062 622.446 115.766 626.711 115.766C630.975 115.766 634.898 115.062 638.48 113.655C643.64 111.608 646.22 109.113 646.22 106.171V49.2422C646.22 46.3424 643.64 43.8478 638.48 41.7583C634.898 40.3511 630.975 39.6475 626.711 39.6475C622.446 39.6475 618.523 40.3511 614.941 41.7583C609.781 43.8052 607.201 46.2998 607.201 49.2422V106.171ZM594.408 106.171C594.408 106.171 594.408 87.1947 594.408 49.2422C594.408 41.4385 599.248 35.5324 608.928 31.5239C614.344 29.2638 620.272 28.1338 626.711 28.1338C633.15 28.1338 639.077 29.2638 644.493 31.5239C654.173 35.5324 659.013 41.4385 659.013 49.2422V106.171C659.013 113.975 654.173 119.881 644.493 123.889C639.077 126.149 633.15 127.279 626.711 127.279C620.272 127.279 614.344 126.149 608.928 123.889C599.248 119.881 594.408 113.975 594.408 106.171ZM689.839 128.559V49.2422C689.839 41.4385 694.679 35.5324 704.359 31.5239C709.775 29.2638 715.702 28.1338 722.141 28.1338C728.58 28.1338 734.508 29.2638 739.923 31.5239C749.603 35.5324 754.443 41.4385 754.443 49.2422V122.802L742.29 128.559H741.65V49.2422C741.65 46.2998 739.071 43.8052 733.911 41.7583C730.329 40.3511 726.405 39.6475 722.141 39.6475C717.877 39.6475 713.954 40.3511 710.372 41.7583C705.212 43.8052 702.632 46.2998 702.632 49.2422V122.802L690.479 128.559H689.839ZM785.269 128.559V32.6113L797.423 26.8545H798.062V122.802L785.909 128.559H785.269ZM830.423 128.559L819.294 123.313L846.287 77.7065L819.294 32.1636L830.487 26.8545H831.127L853.771 66.3848L876.414 26.8545H877.054L888.248 32.1636L861.254 77.7065L888.248 123.313L877.118 128.559H876.478L853.771 89.0283L831.063 128.559H830.423Z" fill="#003450"/>
<path d="M322.083 191.645V167.475L325.145 166.024H325.306V190.194L322.244 191.645H322.083ZM334.721 191.645V171.664C334.721 169.698 335.94 168.21 338.379 167.201C339.743 166.631 341.236 166.347 342.858 166.347C344.481 166.347 345.974 166.631 347.338 167.201C349.776 168.21 350.996 169.698 350.996 171.664V190.194L347.934 191.645H347.773V171.664C347.773 170.923 347.123 170.294 345.823 169.779C344.921 169.424 343.933 169.247 342.858 169.247C341.784 169.247 340.796 169.424 339.894 169.779C338.594 170.294 337.944 170.923 337.944 171.664V190.194L334.882 191.645H334.721ZM360.411 191.645V171.664C360.411 169.698 361.63 168.21 364.069 167.201C365.433 166.631 366.926 166.347 368.548 166.347C370.17 166.347 371.663 166.631 373.028 167.201C375.466 168.21 376.685 169.698 376.685 171.664V190.194L373.624 191.645H373.463V171.664C373.463 170.923 372.813 170.294 371.513 169.779C370.611 169.424 369.622 169.247 368.548 169.247C367.474 169.247 366.486 169.424 365.583 169.779C364.284 170.294 363.634 170.923 363.634 171.664V190.194L360.572 191.645H360.411ZM389.323 186.005C389.323 186.735 389.973 187.364 391.273 187.89C392.175 188.245 393.164 188.422 394.238 188.422C395.312 188.422 396.3 188.245 397.203 187.89C398.503 187.375 399.152 186.746 399.152 186.005V171.664C399.152 170.934 398.503 170.305 397.203 169.779C396.3 169.424 395.312 169.247 394.238 169.247C393.164 169.247 392.175 169.424 391.273 169.779C389.973 170.294 389.323 170.923 389.323 171.664V186.005ZM386.101 186.005C386.101 186.005 386.101 181.225 386.101 171.664C386.101 169.698 387.32 168.21 389.758 167.201C391.123 166.631 392.616 166.347 394.238 166.347C395.86 166.347 397.353 166.631 398.717 167.201C401.156 168.21 402.375 169.698 402.375 171.664V186.005C402.375 187.971 401.156 189.458 398.717 190.468C397.353 191.038 395.86 191.322 394.238 191.322C392.616 191.322 391.123 191.038 389.758 190.468C387.32 189.458 386.101 187.971 386.101 186.005ZM416.866 191.645L408.648 167.346L411.436 166.024H411.597L418.268 186.263L424.568 166.024H424.729L427.517 167.346L419.815 190.323L417.027 191.645H416.866ZM433.806 191.645V171.664C433.806 169.698 435.026 168.21 437.464 167.201C438.828 166.631 440.321 166.347 441.944 166.347C443.566 166.347 445.059 166.631 446.423 167.201C448.862 168.21 450.081 169.698 450.081 171.664C450.081 171.664 450.081 177.841 450.081 190.194L447.019 191.645H446.858V180.301H437.029V190.194L433.967 191.645H433.806ZM437.029 177.368H446.858V171.664C446.858 170.923 446.208 170.294 444.908 169.779C444.006 169.424 443.018 169.247 441.944 169.247C440.869 169.247 439.881 169.424 438.979 169.779C437.679 170.294 437.029 170.923 437.029 171.664V177.368ZM460.833 191.645V169.602H453.937V169.44L455.242 166.669H470.953V166.83L469.647 169.602H464.056V190.194L460.995 191.645H460.833ZM475.614 191V167.475L477.322 166.669H487.538V166.83L486.233 169.602H478.837V177.368H487.538V177.529L486.233 180.301H478.837V188.067H490.229V188.229L488.924 191H475.614ZM528.965 191.645V167.475L532.026 166.024H532.188V190.194L529.126 191.645H528.965ZM541.603 191.645V171.664C541.603 169.698 542.822 168.21 545.261 167.201C546.625 166.631 548.118 166.347 549.74 166.347C551.362 166.347 552.855 166.631 554.22 167.201C556.658 168.21 557.877 169.698 557.877 171.664V190.194L554.816 191.645H554.655V171.664C554.655 170.923 554.005 170.294 552.705 169.779C551.803 169.424 550.814 169.247 549.74 169.247C548.666 169.247 547.678 169.424 546.775 169.779C545.475 170.294 544.826 170.923 544.826 171.664V190.194L541.764 191.645H541.603ZM568.63 191.645V169.602H561.734V169.44L563.039 166.669H578.749V166.83L577.444 169.602H571.853V190.194L568.791 191.645H568.63ZM583.411 191V167.475L585.119 166.669H595.335V166.83L594.03 169.602H586.634V177.368H595.335V177.529L594.03 180.301H586.634V188.067H598.026V188.229L596.721 191H583.411ZM621.315 177.368V186.005C621.315 187.971 620.095 189.458 617.657 190.468C616.293 191.038 614.799 191.322 613.177 191.322C611.555 191.322 610.062 191.038 608.698 190.468C606.259 189.458 605.04 187.971 605.04 186.005V171.664C605.04 169.698 606.259 168.21 608.698 167.201C610.062 166.631 611.555 166.347 613.177 166.347C614.799 166.347 616.293 166.631 617.657 167.201C620.095 168.21 621.315 169.698 621.315 171.664V174.081L618.253 175.531H618.092V171.664C618.092 170.923 617.442 170.294 616.142 169.779C615.24 169.424 614.252 169.247 613.177 169.247C612.103 169.247 611.115 169.424 610.213 169.779C608.913 170.294 608.263 170.923 608.263 171.664V186.005C608.263 186.746 608.913 187.375 610.213 187.89C611.115 188.245 612.103 188.422 613.177 188.422C614.252 188.422 615.24 188.245 616.142 187.89C617.442 187.375 618.092 186.746 618.092 186.005V180.301H612.485V180.14L613.79 177.368H621.315ZM633.953 179.882H638.545C639.619 179.882 640.607 179.705 641.51 179.35C642.81 178.834 643.459 178.206 643.459 177.465V171.986C643.459 171.234 642.81 170.606 641.51 170.101C640.607 169.747 639.619 169.569 638.545 169.569H633.953V179.882ZM630.73 191.645V167.475L632.438 166.669H638.545C640.167 166.669 641.66 166.954 643.024 167.523C645.463 168.533 646.682 170.021 646.682 171.986V177.465C646.682 179.441 645.463 180.929 643.024 181.928C642.552 182.122 642.063 182.283 641.558 182.412L647.069 190.307L644.233 191.645H644.072L637.868 182.782H633.953V190.194L630.891 191.645H630.73ZM655.678 191.645V171.664C655.678 169.698 656.898 168.21 659.336 167.201C660.7 166.631 662.194 166.347 663.816 166.347C665.438 166.347 666.931 166.631 668.295 167.201C670.734 168.21 671.953 169.698 671.953 171.664C671.953 171.664 671.953 177.841 671.953 190.194L668.891 191.645H668.73V180.301H658.901V190.194L655.84 191.645H655.678ZM658.901 177.368H668.73V171.664C668.73 170.923 668.08 170.294 666.781 169.779C665.878 169.424 664.89 169.247 663.816 169.247C662.741 169.247 661.753 169.424 660.851 169.779C659.551 170.294 658.901 170.923 658.901 171.664V177.368ZM682.706 191.645V169.602H675.809V169.44L677.114 166.669H692.825V166.83L691.52 169.602H685.928V190.194L682.867 191.645H682.706ZM697.487 191V167.475L699.195 166.669H709.41V166.83L708.105 169.602H700.709V177.368H709.41V177.529L708.105 180.301H700.709V188.067H712.101V188.229L710.796 191H697.487ZM750.837 191V167.475L752.545 166.669H762.761V166.83L761.456 169.602H754.06V177.368H762.761V177.529L761.456 180.301H754.06V188.067H765.452V188.229L764.147 191H750.837ZM772.466 191V167.475L775.528 166.024H775.689V188.067H786.727V188.229L785.421 191H772.466ZM791.066 191V167.475L792.774 166.669H802.99V166.83L801.685 169.602H794.289V177.368H802.99V177.529L801.685 180.301H794.289V188.067H805.681V188.229L804.376 191H791.066ZM817.771 191.645L809.553 167.346L812.341 166.024H812.502L819.173 186.263L825.473 166.024H825.634L828.422 167.346L820.72 190.323L817.932 191.645H817.771ZM834.711 191.645V171.664C834.711 169.698 835.93 168.21 838.369 167.201C839.733 166.631 841.226 166.347 842.848 166.347C844.47 166.347 845.964 166.631 847.328 167.201C849.766 168.21 850.986 169.698 850.986 171.664C850.986 171.664 850.986 177.841 850.986 190.194L847.924 191.645H847.763V180.301H837.934V190.194L834.872 191.645H834.711ZM837.934 177.368H847.763V171.664C847.763 170.923 847.113 170.294 845.813 169.779C844.911 169.424 843.923 169.247 842.848 169.247C841.774 169.247 840.786 169.424 839.884 169.779C838.584 170.294 837.934 170.923 837.934 171.664V177.368ZM861.738 191.645V169.602H854.842V169.44L856.147 166.669H871.857V166.83L870.552 169.602H864.961V190.194L861.899 191.645H861.738ZM876.519 191V167.475L878.227 166.669H888.443V166.83L887.138 169.602H879.742V177.368H888.443V177.529L887.138 180.301H879.742V188.067H891.134V188.229L889.829 191H876.519Z" fill="#003450"/>
<ellipse cx="505.492" cy="178.885" rx="5.4919" ry="7.88509" fill="#003450"/>
<ellipse cx="728.492" cy="178.885" rx="5.4919" ry="7.88509" fill="#003450"/>
<path fill-rule="evenodd" clip-rule="evenodd" d="M183.547 28.4552C177.588 26.5926 173.268 21.0778 173.268 14.5643C173.268 6.52068 179.856 -1.97645e-06 187.983 0C196.11 0 202.699 6.52068 202.699 14.5643C202.699 21.3122 198.062 26.9883 191.77 28.6419V40.6353C223.78 43.5 250.327 65.1066 260.119 94.2809C259.588 94.2478 259.052 94.231 258.512 94.231C244.604 94.231 233.329 105.39 233.329 119.156C233.329 132.922 244.604 144.081 258.512 144.081C259.052 144.081 259.588 144.064 260.119 144.031C249.646 175.233 220.008 197.78 185.018 197.998V144.585C198.973 144.313 210.201 133.033 210.201 119.156C210.201 105.109 198.696 93.7225 184.504 93.7225C172.438 93.7225 162.314 101.953 159.551 113.052H104.612L104.612 113.052H105.078C108.203 72.6697 142.062 40.8006 183.547 40.3173V28.4552ZM159.124 124.751C156.224 165.684 121.755 198 79.6607 198C35.6653 198 0 162.7 0 119.156C0 75.7807 35.3881 40.5865 79.1472 40.3131V93.7272C65.192 93.9977 53.9633 105.279 53.9633 119.156C53.9633 133.202 65.4682 144.589 79.6603 144.589C92.3227 144.589 102.846 135.525 104.967 123.594C104.951 123.302 104.936 123.01 104.923 122.717H159.242C159.228 123.011 159.214 123.304 159.197 123.598C159.266 123.985 159.344 124.37 159.43 124.751H159.124Z" fill="url(#paint0_linear_116_103)"/>
<ellipse cx="186.046" cy="119.156" rx="13.8764" ry="13.7341" fill="#005B8C"/>
<ellipse cx="258.512" cy="119.156" rx="13.8764" ry="13.7341" fill="#005B8C"/>
<defs>
<linearGradient id="paint0_linear_116_103" x1="130.059" y1="0" x2="130.059" y2="198" gradientUnits="userSpaceOnUse">
<stop stop-color="#2EBDF3"/>
<stop offset="1" stop-color="#0C4EC0"/>
</linearGradient>
</defs>
</svg>
