<svg width="22" height="15" viewBox="0 0 22 15" fill="none" xmlns="http://www.w3.org/2000/svg">
<path d="M1.69263 0C1.37389 0.000796249 1.06196 0.0944546 0.793379 0.269964L10.2066 8.90384C10.3084 9.01136 10.4303 9.09687 10.5651 9.15526C10.6998 9.21366 10.8447 9.24374 10.9911 9.24374C11.1374 9.24374 11.2823 9.21366 11.417 9.15526C11.5518 9.09687 11.6737 9.01136 11.7755 8.90384L21.2066 0.269964C20.938 0.0944546 20.6261 0.000796249 20.3074 0H1.69263ZM0.0976301 1.17116C0.0347534 1.35177 0.00175952 1.54178 5.05149e-06 1.73348V13.2693C-0.000539014 13.4967 0.0428706 13.722 0.12774 13.9322C0.21261 14.1425 0.337266 14.3335 0.494549 14.4943C0.651832 14.6551 0.838643 14.7826 1.04425 14.8694C1.24985 14.9562 1.4702 15.0006 1.69263 15H20.3074C20.5298 15.0006 20.7501 14.9562 20.9558 14.8694C21.1614 14.7826 21.3482 14.6551 21.5054 14.4943C21.6627 14.3335 21.7874 14.1425 21.8723 13.9322C21.9571 13.722 22.0005 13.4967 22 13.2693V1.73348C21.9982 1.54178 21.9652 1.35177 21.9024 1.17116L12.5249 9.7544C12.1042 10.1426 11.5577 10.3575 10.9911 10.3575C10.4244 10.3575 9.87792 10.1426 9.45725 9.7544L0.0976301 1.17116Z" fill="white"/>
</svg>
