<svg width="25" height="20" viewBox="0 0 25 20" fill="none" xmlns="http://www.w3.org/2000/svg">
<path d="M24.4987 2.36769C23.6098 2.76909 22.6536 3.04057 21.6508 3.16182C22.6747 2.53714 23.4604 1.54871 23.8313 0.36901C22.8732 0.947755 21.8117 1.3676 20.6828 1.5939C19.7784 0.61301 18.4898 0 17.0629 0C14.3252 0 12.1048 2.26113 12.1048 5.04905C12.1048 5.44479 12.1488 5.82999 12.2338 6.19976C8.11323 5.98927 4.45964 3.97929 2.01406 0.923656C1.58736 1.66921 1.34258 2.53714 1.34258 3.4623C1.34258 5.21359 2.21854 6.75967 3.54819 7.66488C2.73583 7.6389 1.9708 7.41184 1.30265 7.03267C1.30228 7.05413 1.30228 7.07559 1.30228 7.09668C1.30228 9.54307 3.01204 11.5835 5.27977 12.0471C4.86416 12.163 4.42526 12.2244 3.97378 12.2244C3.65357 12.2244 3.34334 12.1932 3.04088 12.1344C3.67169 14.1399 5.50236 15.5997 7.67247 15.6408C5.97528 16.9952 3.83771 17.8021 1.51415 17.8021C1.11481 17.8021 0.719168 17.7784 0.332031 17.7313C2.52507 19.1645 5.13186 20 7.93167 20C17.0514 20 22.0387 12.3065 22.0387 5.63381C22.0387 5.41504 22.0339 5.19703 22.0243 4.98089C22.9938 4.26923 23.8342 3.38021 24.4987 2.36769Z" fill="#4C4C4C"/>
</svg>
