<svg width="28" height="20" viewBox="0 0 28 20" fill="none" xmlns="http://www.w3.org/2000/svg">
<path d="M21.2913 11.7212C20.0669 11.7212 18.9191 11.1952 17.8757 10.3391L18.1291 9.12711L18.138 9.0798C18.368 7.79234 19.0813 5.63305 21.2924 5.63305C22.9502 5.63305 24.2957 6.99823 24.2957 8.67768C24.2946 10.3549 22.9491 11.7212 21.2913 11.7212ZM21.2913 2.55237C18.4702 2.55237 16.2802 4.40979 15.3913 7.47019C14.0357 5.40439 13.0046 2.92408 12.4057 0.833496H9.36575V8.84439C9.36352 10.4281 8.09797 11.7122 6.53575 11.7144C4.97464 11.7122 3.71019 10.427 3.70797 8.84439V0.833496H0.667969V8.84439C0.667969 12.1267 3.3013 14.8176 6.53575 14.8176C9.77241 14.8176 12.4057 12.1267 12.4057 8.84439V7.50398C12.9935 8.7509 13.7191 10.0147 14.5991 11.1321L12.7402 20.0002H15.848L17.1957 13.5685C18.3769 14.3333 19.7346 14.8176 21.2913 14.8176C24.6246 14.8176 27.3346 12.0557 27.3346 8.67881C27.3346 5.29964 24.6246 2.55237 21.2913 2.55237Z" fill="#4C4C4C"/>
</svg>
