<svg width="17" height="21" viewBox="0 0 17 21" fill="none" xmlns="http://www.w3.org/2000/svg">
<path d="M12.7501 20.2524C12.7501 20.4513 12.6711 20.6421 12.5305 20.7827C12.3898 20.9234 12.199 21.0024 12.0001 21.0024H4.50012C4.30121 21.0024 4.11045 20.9234 3.96979 20.7827C3.82914 20.6421 3.75012 20.4513 3.75012 20.2524C3.75012 20.0535 3.82914 19.8627 3.96979 19.7221C4.11045 19.5814 4.30121 19.5024 4.50012 19.5024H12.0001C12.199 19.5024 12.3898 19.5814 12.5305 19.7221C12.6711 19.8627 12.7501 20.0535 12.7501 20.2524ZM16.5001 8.2524C16.5034 9.50268 16.2209 10.7372 15.6743 11.8617C15.1278 12.9862 14.3315 13.971 13.3464 14.7408C13.1622 14.882 13.0127 15.0635 12.9093 15.2713C12.806 15.4791 12.7515 15.7078 12.7501 15.9399V16.5024C12.7501 16.9002 12.5921 17.2818 12.3108 17.5631C12.0295 17.8444 11.6479 18.0024 11.2501 18.0024H5.25012C4.8523 18.0024 4.47077 17.8444 4.18946 17.5631C3.90816 17.2818 3.75012 16.9002 3.75012 16.5024V15.9399C3.74997 15.7106 3.69724 15.4844 3.59599 15.2786C3.49474 15.0728 3.34766 14.893 3.16606 14.753C2.18337 13.9877 1.38767 13.0088 0.839165 11.8906C0.290664 10.7723 0.00374416 9.54388 0.000122671 8.29833C-0.0242523 3.83021 3.587 0.10927 8.05137 0.00239455C9.15139 -0.0241136 10.2456 0.169694 11.2696 0.572411C12.2936 0.975128 13.2267 1.57862 14.0139 2.34735C14.8012 3.11609 15.4267 4.03455 15.8537 5.04867C16.2806 6.06278 16.5004 7.15206 16.5001 8.2524ZM11.7807 8.47177C11.7111 8.40204 11.6284 8.34672 11.5373 8.30898C11.4463 8.27123 11.3487 8.25181 11.2501 8.25181C11.1516 8.25181 11.054 8.27123 10.9629 8.30898C10.8719 8.34672 10.7892 8.40204 10.7195 8.47177L8.25012 10.9421L5.78075 8.47177C5.64002 8.33104 5.44915 8.25198 5.25012 8.25198C5.0511 8.25198 4.86023 8.33104 4.7195 8.47177C4.57877 8.6125 4.49971 8.80337 4.49971 9.0024C4.49971 9.20142 4.57877 9.39229 4.7195 9.53302L7.50012 12.3127V15.7524C7.50012 15.9513 7.57914 16.1421 7.71979 16.2827C7.86045 16.4234 8.05121 16.5024 8.25012 16.5024C8.44904 16.5024 8.6398 16.4234 8.78045 16.2827C8.92111 16.1421 9.00012 15.9513 9.00012 15.7524V12.3127L11.7807 9.53302C11.8505 9.46337 11.9058 9.38065 11.9435 9.2896C11.9813 9.19855 12.0007 9.10096 12.0007 9.0024C12.0007 8.90383 11.9813 8.80624 11.9435 8.71519C11.9058 8.62414 11.8505 8.54142 11.7807 8.47177Z" fill="#0F59C6"/>
</svg>
