<svg width="36" height="38" viewBox="0 0 36 38" fill="none" xmlns="http://www.w3.org/2000/svg">
<path d="M3 0.046875H33C33.7832 0.046875 34.5341 0.358291 35.0879 0.912109C35.6417 1.46593 35.9531 2.21678 35.9531 3V13.5C35.9531 23.3671 31.1778 29.3454 27.1826 32.624C23.4007 35.7131 19.6441 37.0163 18.6406 37.3271L18.3867 37.4023C18.1371 37.4702 17.8737 37.4703 17.624 37.4023C17.4391 37.3524 13.1454 36.1542 8.8291 32.624C4.82266 29.3455 0.046875 23.3674 0.046875 13.5V3C0.046875 2.21678 0.358291 1.46593 0.912109 0.912109C1.46593 0.358291 2.21678 0.046875 3 0.046875ZM2.95312 13.5C2.95312 20.5069 5.55 26.1852 10.6729 30.376C12.8519 32.1583 15.3266 33.5446 17.9844 34.4727L18 34.4785L18.0156 34.4727C20.7085 33.5281 23.214 32.1168 25.417 30.3027C30.4797 26.1195 33.0469 20.4636 33.0469 13.5V2.95312H2.95312V13.5ZM25.5 10.5459C25.6909 10.5459 25.8802 10.5832 26.0566 10.6562C26.233 10.7293 26.3933 10.8367 26.5283 10.9717C26.6633 11.1067 26.7707 11.267 26.8438 11.4434C26.9168 11.6198 26.9541 11.8091 26.9541 12L26.9473 12.1426C26.9333 12.2846 26.8986 12.4243 26.8438 12.5566C26.7707 12.733 26.6633 12.8933 26.5283 13.0283L16.0283 23.5283C15.8934 23.6634 15.733 23.7706 15.5566 23.8438C15.3802 23.9169 15.191 23.9541 15 23.9541C14.809 23.9541 14.6198 23.9169 14.4434 23.8438C14.267 23.7706 14.1066 23.6634 13.9717 23.5283L9.47168 19.0283C9.19901 18.7557 9.0459 18.3856 9.0459 18C9.0459 17.6144 9.19901 17.2443 9.47168 16.9717C9.74435 16.699 10.1144 16.5459 10.5 16.5459C10.8856 16.5459 11.2557 16.699 11.5283 16.9717L14.9668 20.4121L15 20.4453L15.0332 20.4121L24.4717 10.9717C24.6067 10.8367 24.767 10.7293 24.9434 10.6562C25.1198 10.5832 25.3091 10.5459 25.5 10.5459Z" fill="#0F59C6" stroke="#1C2024" stroke-width="0.09375"/>
</svg>
